<svg id="Layer_1" data-name="Layer 1" xmlns="http://www.w3.org/2000/svg" viewBox="0 0 646.07 491.26"><defs><style>.cls-1{font-size:57.7px;}.cls-1,.cls-6{fill:#3a2b1e;}.cls-1,.cls-3{font-family:Superclarendon-Light, Superclarendon;font-weight:300;}.cls-2{letter-spacing:-0.02em;}.cls-3{font-size:35.72px;}.cls-3,.cls-7{fill:#c9834f;}.cls-4{letter-spacing:-0.06em;}.cls-5{letter-spacing:-0.09em;}.cls-8{fill:#41210f;}</style></defs><g id="_2" data-name="2"><g id="Text"><text class="cls-1" transform="translate(0 423.48)">PRECI<tspan class="cls-2" x="198.21" y="0">O</tspan><tspan x="245.01" y="0">US GLUTEN</tspan></text><text class="cls-3" transform="translate(240.57 474.4)"><tspan class="cls-4">B</tspan><tspan x="26.75" y="0">AKE</tspan><tspan class="cls-5" x="116.83" y="0">R</tspan><tspan x="141.48" y="0">Y</tspan></text></g><g id="Object"><path class="cls-6" d="M630.23,419.35l-36.19.22c.38,2.45.69,4.93,1,7.41h1.2l34.2-.16a3.76,3.76,0,0,0,3.64-3.82A3.8,3.8,0,0,0,630.23,419.35Z" transform="translate(-76.1 -133.38)"/><path class="cls-6" d="M718.52,419.11q-10.24.33-20.49.73c-3.42.13-6.82.33-10.23.61A54.66,54.66,0,0,0,677.69,422a1.38,1.38,0,0,0,.07,2.64,54.12,54.12,0,0,0,10.17,1.1c3.42.12,6.83.18,10.25.15q10.25-.06,20.5-.18a3.3,3.3,0,0,0-.16-6.6Z" transform="translate(-76.1 -133.38)"/><path class="cls-6" d="M573.05,331.76l29.55-17.25a3.77,3.77,0,0,0,1.21-5.13,3.81,3.81,0,0,0-5.13-1.21L557.12,332.5c1.5,2,3,4,4.39,6Z" transform="translate(-76.1 -133.38)"/><path class="cls-6" d="M652.77,276.66q-8.71,5.41-17.37,10.87c-2.9,1.82-5.74,3.7-8.56,5.64a54,54,0,0,0-8,6.39,1.38,1.38,0,0,0,1.39,2.25,54,54,0,0,0,9.35-4.13c3-1.61,6-3.26,9-5q8.85-5.19,17.66-10.41C659.88,280.11,656.39,274.42,652.77,276.66Z" transform="translate(-76.1 -133.38)"/><path class="cls-6" d="M505.36,260.93q8.48-14.87,17-29.71a3.76,3.76,0,0,0-1.46-5.06,3.8,3.8,0,0,0-5.07,1.46L488.3,275.91c2.22,1.09,4.43,2.21,6.6,3.38Q500.12,270.11,505.36,260.93Z" transform="translate(-76.1 -133.38)"/><path class="cls-6" d="M531.29,211.36a54.2,54.2,0,0,0,6-8.24q2.73-4.35,5.26-8.8,5.07-8.91,10.09-17.84a3.3,3.3,0,1,0-5.78-3.19q-4.83,9-9.61,18.1c-1.6,3-3.12,6.07-4.59,9.17a53.8,53.8,0,0,0-3.71,9.52A1.38,1.38,0,0,0,531.29,211.36Z" transform="translate(-76.1 -133.38)"/><path class="cls-6" d="M411.33,233.38l-.16-34.21a3.77,3.77,0,0,0-3.82-3.64,3.81,3.81,0,0,0-3.63,3.82q.16,28.56.34,57.11c2.49,0,5,.06,7.42.16Q411.41,245,411.33,233.38Z" transform="translate(-76.1 -133.38)"/><path class="cls-6" d="M404.81,167.47a53.84,53.84,0,0,0,1.56,10.11,1.37,1.37,0,0,0,2.63-.07,54.13,54.13,0,0,0,1.11-10.17c.12-3.42.17-6.83.15-10.25q-.06-10.26-.19-20.5a3.3,3.3,0,0,0-6.59.16q.33,10.25.72,20.49C404.33,160.66,404.54,164.06,404.81,167.47Z" transform="translate(-76.1 -133.38)"/><path class="cls-6" d="M316.12,256.53q-8.61-14.77-17.24-29.54a3.75,3.75,0,0,0-5.13-1.21,3.8,3.8,0,0,0-1.21,5.13q13.24,22.64,26.5,45.28,3.33-1.65,6.74-3.17Q321,264.78,316.12,256.53Z" transform="translate(-76.1 -133.38)"/><path class="cls-6" d="M271.9,194.19c1.82,2.9,3.7,5.74,5.64,8.55a53.32,53.32,0,0,0,6.39,8,1.38,1.38,0,0,0,2.25-1.38A53.85,53.85,0,0,0,282,200q-2.4-4.53-5-9-5.18-8.83-10.41-17.65c-2.17-3.65-7.86-.16-5.61,3.46Q266.43,185.53,271.9,194.19Z" transform="translate(-76.1 -133.38)"/><path class="cls-6" d="M245.29,324.22l-29.7-17a3.73,3.73,0,1,0-3.61,6.53l37,21.08q2.22-3,4.55-5.94C250.8,327.36,248,325.8,245.29,324.22Z" transform="translate(-76.1 -133.38)"/><path class="cls-6" d="M194.45,300.61a1.37,1.37,0,0,0,1.27-2.31,53.11,53.11,0,0,0-8.24-6c-2.9-1.82-5.82-3.57-8.8-5.26q-8.91-5.07-17.84-10.09a3.3,3.3,0,0,0-3.19,5.78q9,4.85,18.1,9.61,4.55,2.4,9.17,4.59A53.9,53.9,0,0,0,194.45,300.61Z" transform="translate(-76.1 -133.38)"/><path class="cls-6" d="M183.53,418.41a3.73,3.73,0,1,0,.19,7.45l29.31-.17c.3-2.49.65-5,1-7.42Z" transform="translate(-76.1 -133.38)"/><path class="cls-6" d="M129.77,420.58a54.21,54.21,0,0,0-10.17-1.1c-3.43-.13-6.83-.18-10.26-.16-6.83.05-13.66.1-20.49.19A3.3,3.3,0,1,0,89,426.1q10.24-.32,20.48-.72c3.42-.13,6.82-.34,10.24-.61a54.55,54.55,0,0,0,10.1-1.55A1.38,1.38,0,0,0,129.77,420.58Z" transform="translate(-76.1 -133.38)"/><path class="cls-7" d="M584.48,379.88a3,3,0,1,0-1.76-5.83l-1.38.37q1.18,2.82,2.28,5.69Z" transform="translate(-76.1 -133.38)"/><path class="cls-7" d="M632.15,361q-8,2.37-16.07,4.81c-2.61.78-5.19,1.62-7.76,2.52a43.9,43.9,0,0,0-7.81,3.36,1.13,1.13,0,0,0,.62,2.07,44.94,44.94,0,0,0,8.22-1.22c2.73-.61,5.45-1.27,8.16-2q8.1-2.16,16.2-4.38C637.05,365.21,635.49,360,632.15,361Z" transform="translate(-76.1 -133.38)"/><path class="cls-7" d="M539.32,296.87c2.78-2.78-1.63-7-4.41-4.2l-8.14,8.12q2.34,1.95,4.62,4Z" transform="translate(-76.1 -133.38)"/><path class="cls-7" d="M550.67,283.19a44.18,44.18,0,0,0,6.5-5.15c2.06-1.9,4.08-3.83,6.06-5.81q5.94-5.94,11.85-11.9c2.44-2.47-1.51-6.23-3.91-3.71q-5.77,6.08-11.52,12.2-2.79,3-5.46,6.06a44.41,44.41,0,0,0-5.08,6.82A1.12,1.12,0,0,0,550.67,283.19Z" transform="translate(-76.1 -133.38)"/><path class="cls-7" d="M458.71,247.56c1-3.79-4.89-5.26-5.91-1.47q-2.08,7.78-4.19,15.59,3,.7,5.88,1.5Z" transform="translate(-76.1 -133.38)"/><path class="cls-7" d="M461.7,230a43.4,43.4,0,0,0,3.05-7.71c.84-2.67,1.63-5.35,2.36-8.06q2.17-8.1,4.3-16.22c.88-3.36-4.41-4.67-5.23-1.3q-2,8.16-3.87,16.33c-.63,2.65-1.19,5.3-1.7,8a44.82,44.82,0,0,0-1,8.46A1.12,1.12,0,0,0,461.7,230Z" transform="translate(-76.1 -133.38)"/><path class="cls-7" d="M364.24,245.1a3,3,0,0,0-5.83,1.76q1.89,7.08,3.79,14.16,3-.66,5.95-1.22Q366.2,252.45,364.24,245.1Z" transform="translate(-76.1 -133.38)"/><path class="cls-7" d="M350.13,213.51c.79,2.61,1.62,5.18,2.52,7.76a45.65,45.65,0,0,0,3.36,7.8,1.13,1.13,0,0,0,2.07-.61,43.85,43.85,0,0,0-1.22-8.22c-.61-2.74-1.27-5.45-2-8.16q-2.17-8.12-4.38-16.21c-.92-3.34-6.15-1.78-5.16,1.56Q347.7,205.49,350.13,213.51Z" transform="translate(-76.1 -133.38)"/><path class="cls-7" d="M281.23,290.26c-2.77-2.78-7,1.64-4.2,4.41l5.2,5.21q2.37-1.94,4.8-3.79Z" transform="translate(-76.1 -133.38)"/><path class="cls-7" d="M253.18,269.93c2,1.87,4,3.68,6.07,5.46a44.82,44.82,0,0,0,6.81,5.08,1.12,1.12,0,0,0,1.49-1.56,43.44,43.44,0,0,0-5.15-6.49c-1.9-2.07-3.82-4.09-5.81-6.07q-5.92-5.94-11.89-11.84c-2.47-2.44-6.23,1.5-3.72,3.9Q247.07,264.18,253.18,269.93Z" transform="translate(-76.1 -133.38)"/><path class="cls-7" d="M197.43,367.28c2.65.62,5.31,1.18,8,1.7a44.81,44.81,0,0,0,8.47,1,1.12,1.12,0,0,0,.51-2.09,43.3,43.3,0,0,0-7.7-3.05c-2.68-.84-5.35-1.63-8.06-2.35q-8.12-2.18-16.22-4.31c-3.36-.88-4.68,4.41-1.31,5.23Q189.26,365.37,197.43,367.28Z" transform="translate(-76.1 -133.38)"/><path class="cls-8" d="M429.71,287.62c-1.45-1.24-2.95-2.4-4.5-3.5-.64-.45-1.3-.88-1.93-1.33a17.14,17.14,0,0,0-2.71-1.44,45.41,45.41,0,0,0-10.69-3.64,43.41,43.41,0,0,0-21.12.85,37.29,37.29,0,0,0-17.14,10.76c-4.76,5.4-7.56,12.17-9.23,19.1a133.23,133.23,0,0,0-3.06,22.85,178.82,178.82,0,0,0,.08,23.72,185,185,0,0,0,3.26,24,147.86,147.86,0,0,0,6,21.88c2.54,6.83,6,13.39,11,18.74a33.47,33.47,0,0,0,17.54,10,25.11,25.11,0,0,0,19.28-4c5.49-3.81,9.54-9.34,12.74-15.13a124,124,0,0,0,8.57-19.89A141.09,141.09,0,0,0,443.27,369a143.68,143.68,0,0,0,.75-44.63,121,121,0,0,0-5-22,60.48,60.48,0,0,0-4.72-10.63,23.75,23.75,0,0,0-6.94-7.93,30.46,30.46,0,0,0-8.78-4,67.19,67.19,0,0,0-9.87-2.37,38.33,38.33,0,0,0-5.48-.45,40.37,40.37,0,0,0-5.27.28,44.54,44.54,0,0,0-10.36,2.58,57,57,0,0,0-10.15,5.24,1.56,1.56,0,0,0,1.64,2.65c5.92-3.75,12.63-6.42,19.68-6.63q1.2,0,2.4,0c.4,0,.8.06,1.2.07s.27,0,.16,0l.81.09h.14a40.86,40.86,0,0,1,4.82.87,94.18,94.18,0,0,1,9.47,2.77c.7.24,1.4.49,2.09.76-.09,0-.46-.19,0,0l.5.21,1.09.49c.65.31,1.29.64,1.91,1l.9.56.53.36c.46.31-.3-.25.16.12a19.58,19.58,0,0,1,1.62,1.4c.26.26.51.52.76.79l.29.33c.18.23.18.23,0,0l.27.35a35.09,35.09,0,0,1,2.67,4.34c.41.76.8,1.54,1.17,2.33l.33.71c-.05-.1-.16-.37.05.11l.61,1.44c.69,1.7,1.3,3.43,1.86,5.18,1.08,3.41,2,6.88,2.7,10.37q.57,2.67,1,5.35l.21,1.28c0,.07.08.51,0,.09l.12.77c.13.85.25,1.71.36,2.57.48,3.6.81,7.22,1,10.84a142.35,142.35,0,0,1-.46,21.26c0,.43-.09.86-.13,1.29-.09.85.06-.5,0,.34l-.06.52c-.11.94-.23,1.89-.36,2.83q-.37,2.7-.84,5.39-.93,5.24-2.24,10.4c-.88,3.43-1.88,6.84-3,10.2-1.22,3.63-2.29,6.42-3.74,9.78-1.31,3-2.7,6-4.28,8.94-.76,1.39-1.56,2.75-2.42,4.08q-.6.94-1.26,1.86c-.08.13-.17.25-.26.37-.43.61.32-.41-.14.18-.22.3-.45.6-.68.89a38.83,38.83,0,0,1-3.08,3.46c-.52.51-1.06,1-1.61,1.47,0,0-.54.46-.24.21s-.25.19-.24.19c-.34.27-.69.53-1,.77a24.73,24.73,0,0,1-3.72,2.17l-.17.08-.4.16c-.34.14-.68.26-1,.38a19.86,19.86,0,0,1-2.37.66l-.56.12c-.14,0-.65.1-.08,0l-1.12.14a22.49,22.49,0,0,1-2.46.1c-.38,0-.75,0-1.12,0l-.45,0-.2,0c-.74-.08-1.49-.2-2.22-.35s-1.48-.34-2.2-.55l-1.09-.35-.64-.23c-.05,0-.75-.3-.23-.08a32.85,32.85,0,0,1-4.32-2.16c-.67-.39-1.31-.81-1.94-1.25l-.38-.27-.22-.16-1-.79a34.48,34.48,0,0,1-3.44-3.29l-.81-.92-.4-.48c-.29-.35.35.46-.13-.16s-1.1-1.43-1.61-2.17a48.49,48.49,0,0,1-2.65-4.29c-.38-.68-.74-1.37-1.09-2.07-.18-.37-.37-.74-.54-1.11-.11-.22-.21-.45-.32-.67-.34-.74.19.42-.14-.32-.7-1.59-1.35-3.21-1.95-4.84-1.19-3.27-2.2-6.61-3.1-10-1-3.73-1.89-7.5-2.66-11.28s-1.34-7.27-1.85-11.07a180.3,180.3,0,0,1-1.56-23,175.52,175.52,0,0,1,1.34-22.62c.44-3.43,1-6.85,1.75-10.22a52.14,52.14,0,0,1,3-9.34,39.52,39.52,0,0,1,2.33-4.41c.41-.65.83-1.3,1.29-1.92l.22-.3.3-.39c.29-.36.58-.72.88-1.06a31.18,31.18,0,0,1,3.42-3.38l.35-.3c-.35.29.23-.18.24-.19.3-.24.61-.47.91-.69.65-.47,1.32-.92,2-1.35a35.84,35.84,0,0,1,4.14-2.23l.28-.12.43-.18,1.07-.43c.79-.3,1.59-.57,2.4-.82a38.45,38.45,0,0,1,4.6-1.1c.11,0,.6-.11.18,0l.57-.08,1-.13c.84-.1,1.68-.17,2.53-.21a42.45,42.45,0,0,1,5.29.07l1.27.11c-.31,0,.11,0,.15,0l.76.1c.88.12,1.77.27,2.64.44a60,60,0,0,1,9.95,2.86,97.8,97.8,0,0,1,9.5,4c.93.49,2-.8,1.12-1.53Z" transform="translate(-76.1 -133.38)"/><path class="cls-8" d="M371.05,295.13c-.15-.88-.93-1.31-1.68-1.66a7.59,7.59,0,0,0-2.7-.61,9.64,9.64,0,0,0-5.07,1.32,14.06,14.06,0,0,0-6.54,8.1,98.09,98.09,0,0,0-4.77,21.46q-.3,3.17-.35,6.33a26,26,0,0,0,.49,6.35c.2.87,1.72.9,1.83,0,.2-1.82.19-3.6.21-5.43s.1-3.44.24-5.16a74.88,74.88,0,0,1,1.57-10.33,46.81,46.81,0,0,1,3.08-9.61,17.8,17.8,0,0,1,1.06-2L359,303c.11-.18.22-.35.34-.52s.48-.68.28-.42c.43-.57.86-1.15,1.34-1.68.25-.28.51-.56.79-.82l.43-.39c.36-.32-.26.19.16-.12a13.49,13.49,0,0,1,2.09-1.34c.37-.19.08,0,0,0,.24-.1.47-.19.71-.27s.72-.25,1.08-.35l1.26-.3c.06,0,.37-.06,0,0,.25,0,.49-.05.74-.07a4.62,4.62,0,0,0,2.42-.48,1,1,0,0,0,.39-1Z" transform="translate(-76.1 -133.38)"/><path class="cls-8" d="M358,298.1l-1,.1-.46.05-.56.08q-1.21.18-2.43.42a29,29,0,0,0-3.78,1.06,41,41,0,0,0-7.66,3.64,47.63,47.63,0,0,0-12.45,11.1c-7.78,9.85-11.51,22.18-12.2,34.6a87.29,87.29,0,0,0,5.83,35.75,91,91,0,0,0,19.13,30.34c4.14,4.33,9.13,8.41,15.15,9.62,6.79,1.37,13.56-.89,19.59-3.9,1.44-.71,2.84-1.47,4.24-2.26a2.1,2.1,0,0,0,.68-2.88,2.15,2.15,0,0,0-2.88-.68,65,65,0,0,1-8.39,4,32.59,32.59,0,0,1-4.54,1.39l-1.09.23-.44.07-.32,0a21.7,21.7,0,0,1-2.42.17,18.07,18.07,0,0,1-2.21-.09h-.1l-.66-.11c-.43-.07-.86-.16-1.28-.27a18.72,18.72,0,0,1-1.93-.6c-.06,0-.37-.15-.06,0l-.55-.23c-.34-.15-.67-.31-1-.48-.61-.3-1.19-.63-1.77-1-.28-.17-.57-.36-.85-.55l-.42-.28s-.51-.37-.23-.16a36.37,36.37,0,0,1-3.3-2.77,73.67,73.67,0,0,1-10.86-12.85q-2.42-3.53-4.48-7.28c-.7-1.26-1.36-2.54-2-3.83-.3-.62-.59-1.24-.88-1.87-.09-.18-.17-.37-.26-.56,0,.09.14.32,0-.06l-.49-1.14a89.24,89.24,0,0,1-5.2-16.26c-.3-1.41-.56-2.83-.8-4.25-.12-.67.06.42,0-.26,0-.13-.05-.27-.07-.4-.05-.34-.1-.68-.14-1-.11-.75-.2-1.5-.28-2.25a81.63,81.63,0,0,1-.51-9c0-1.53,0-3.05.13-4.58,0-.72.1-1.45.16-2.17,0-.36.07-.72.11-1.08,0-.06,0-.42,0-.08l.09-.76a66.18,66.18,0,0,1,1.71-8.83c.39-1.47.83-2.91,1.34-4.34.11-.34.24-.68.36-1s.16-.4.23-.61c0,0,.15-.38,0-.08.3-.74.61-1.46.93-2.19a49.18,49.18,0,0,1,4.19-7.5l.54-.78.22-.3c.37-.52-.26.34.12-.16s.81-1,1.23-1.57c.82-1,1.68-2,2.58-2.91s1.88-1.87,2.88-2.75l.72-.62.44-.36c-.07.05-.35.28,0,0q.81-.65,1.65-1.26a45.88,45.88,0,0,1,6.78-4l.85-.4c.4-.19,0,0,0,0l.52-.22c.63-.27,1.27-.52,1.92-.76,1.2-.44,2.43-.83,3.65-1.18a36.91,36.91,0,0,1,3.74-.88,2.05,2.05,0,0,0-.64-4Z" transform="translate(-76.1 -133.38)"/><path class="cls-8" d="M303.28,348.93c.35-1.2.72-2.4,1-3.63s.47-2.38.79-3.56a23.64,23.64,0,0,1,2.36-6,13.15,13.15,0,0,1,3.83-4.11c.4-.26.81-.48,1.23-.7s.14-.06.06,0l.34-.14c.27-.1.53-.2.8-.28a13.15,13.15,0,0,1,1.37-.36l.37-.07c-.08,0-.37.05,0,0,.25,0,.5-.06.75-.07a11.92,11.92,0,0,1,1.69,0l.38,0c-.3,0-.06,0,.1,0l.84.15a13.34,13.34,0,0,1,1.53.43l.19.07.1,0,.5.2a7.36,7.36,0,0,0,1.24.14,1.84,1.84,0,0,0,1.68-1.19,1.9,1.9,0,0,0-.44-2c-1.62-1.75-4.81-2.05-7.06-2a14.71,14.71,0,0,0-6.82,2c-4.22,2.47-6.48,7.12-7.35,11.78a29,29,0,0,0-.41,4.56,27.53,27.53,0,0,0,.37,4.71.3.3,0,0,0,.58.07Z" transform="translate(-76.1 -133.38)"/><path class="cls-8" d="M303.21,338.15a12.73,12.73,0,0,0-1.74.22c-.59.14-1.17.39-1.75.59-1.12.37-2.23.8-3.32,1.28a32.28,32.28,0,0,0-6.3,3.67A41.38,41.38,0,0,0,280,354.8a43.87,43.87,0,0,0-6,31,87.46,87.46,0,0,0,5,16.33,51,51,0,0,0,8,14.63c6.22,7.46,15.8,12.08,25.32,13.41,11.36,1.59,22.79-.84,33.32-5.09,1.42-.58,2.79-1.26,4.16-1.93a2.47,2.47,0,0,0-2-4.46A108.41,108.41,0,0,1,332.26,424c-1.35.32-2.7.59-4.07.83-.3,0-.6.11-.91.15l-.45.07c-.72.1-1.44.19-2.17.27a54.34,54.34,0,0,1-8.17.24c-.55,0-1.1-.06-1.65-.11l-.77-.08c-.41,0,.63.08,0,0l-.48-.06c-1.13-.15-2.26-.34-3.38-.56a42.64,42.64,0,0,1-6.75-1.93l-.36-.14c.07,0,.45.18,0,0l-.72-.3c-.56-.24-1.12-.5-1.68-.77-1-.49-2-1-3-1.61-.47-.28-.93-.57-1.39-.87l-.71-.49-.32-.23c.42.3-.1-.08-.14-.11a33.63,33.63,0,0,1-2.58-2.17,30.08,30.08,0,0,1-2.35-2.44l-.31-.36-.13-.16-.12-.15-.33-.43c-.4-.53-.79-1.07-1.16-1.62-.74-1.1-1.41-2.24-2-3.4-.28-.52-.54-1.05-.8-1.58l-.44-.9-.18-.4c-.05-.1-.1-.2-.14-.3.06.15.07.15,0,0-1.07-2.42-2-4.9-2.94-7.38s-1.86-5.17-2.59-7.82c-.37-1.36-.7-2.73-1-4.11-.14-.72-.2-1.06-.28-1.63s-.16-1.28-.22-1.92a40.84,40.84,0,0,1,0-7.58c0-.15,0-.29,0-.43,0,.31,0,0,0-.09l.12-1c.1-.67.21-1.34.34-2,.23-1.23.52-2.44.87-3.65a35.5,35.5,0,0,1,2.65-6.77c.55-1.1,1.16-2.18,1.81-3.22.29-.47.6-.93.91-1.39.15-.21.29-.43.45-.64l.28-.39c.06-.08.26-.36.1-.15a42.9,42.9,0,0,1,4.65-5.25,45.39,45.39,0,0,1,5-4.18,61.07,61.07,0,0,1,5.77-3.8c.48-.26,1-.48,1.47-.73a16.87,16.87,0,0,0,1.45-.92c.52-.33.32-1.28-.36-1.21Z" transform="translate(-76.1 -133.38)"/><path class="cls-8" d="M273,372.06c-.66.6-1.39,1.07-2.09,1.63s-1.61,1.27-2.39,1.93c-1.45,1.22-2.87,2.48-4.23,3.8a112.07,112.07,0,0,0-7.67,8.34c-2.51,3-4.87,6.09-7.15,9.24a42.24,42.24,0,0,0-5.57,9.8c-2.36,6.3-1.57,14.3,4.24,18.47,3,2.18,7.06,2.94,10.67,3.59A67.59,67.59,0,0,0,270.33,430a66.49,66.49,0,0,0,24.9-4.64,2.33,2.33,0,0,0-1.35-4.47A64.36,64.36,0,0,1,283.61,424q-1.31.29-2.64.51s-.77.13-.26,0l-.67.1-1.33.18c-1.78.22-3.57.37-5.36.45s-3.58.07-5.37,0c-.9,0-1.79-.09-2.68-.16l-1.12-.1-.27,0-.89-.11c-1.78-.22-3.55-.53-5.3-.9a33.24,33.24,0,0,1-5.08-1.4c.45.17-.21-.1-.24-.12l-.58-.28a9.88,9.88,0,0,1-.94-.54s-.61-.45-.2-.12c-.14-.11-.28-.22-.41-.34a11.9,11.9,0,0,1-.88-.86c-.07-.08-.41-.55-.08-.09l-.31-.42c-.16-.24-.32-.49-.47-.74s-.34-.62-.48-.94c.24.53,0,0,0-.11l-.24-.67a8,8,0,0,1-.47-1.91c0,.6,0,0,0-.11s0-.36-.06-.54c0-.42,0-.85-.06-1.27s0-.6,0-.9a3.19,3.19,0,0,1,0-.54c-.15.56,0,0,0-.11a18.15,18.15,0,0,1,.57-2.61c.11-.34.22-.68.34-1s.14-.41.22-.61c-.17.43.1-.23.11-.26.36-.83.76-1.64,1.19-2.44a50.53,50.53,0,0,1,2.72-4.37l1.53-2.18.79-1.11c.13-.18.27-.36.4-.55l.2-.27c1.08-1.46,2.18-2.91,3.3-4.33,2.54-3.22,5.19-6.31,7.84-9.44,1.32-1.56,2.63-3.12,4-4.67s2.54-3.24,4-4.65c.93-.9-.5-2.21-1.44-1.37Z" transform="translate(-76.1 -133.38)"/><path class="cls-8" d="M435.24,296.2c-.22-.17.24.16.31.19a1.92,1.92,0,0,0,.88.17h.45c.06,0,.45,0,.19,0l.82.09c.59,0-.19,0,.15,0s.77.17,1.16.27.61.13.91.22l.54.19s.58.19.27.08.28.12.27.12l.52.25a9.84,9.84,0,0,1,1,.58c.05,0,.57.4.17.1l.38.3c.27.21.54.43.8.67a10.05,10.05,0,0,1,.73.73c.14.15.28.3.41.46s.18.21,0,0l.19.25A27.71,27.71,0,0,1,448,304.8a42.38,42.38,0,0,1,3.29,9.35A76.05,76.05,0,0,1,453,324.21c.19,2,.32,3.91.37,5.86s0,4.07.2,6.1a1,1,0,0,0,1.87.21,23.89,23.89,0,0,0,.48-5.66q0-2.82-.24-5.64a78.09,78.09,0,0,0-1.7-11.26,98.76,98.76,0,0,0-2.81-10.45,19.26,19.26,0,0,0-2.16-4.78,14.25,14.25,0,0,0-3.85-3.89,10.82,10.82,0,0,0-5.52-1.87,7.59,7.59,0,0,0-2.67.43c-.9.34-2,.86-2.18,1.91a1,1,0,0,0,.44,1Z" transform="translate(-76.1 -133.38)"/><path class="cls-8" d="M447.33,302.14a44.46,44.46,0,0,1,7.58,2.13l.44.16,0,0,.86.36c.64.27,1.26.56,1.88.87,1.17.58,2.34,1.2,3.47,1.87.53.33,1.07.66,1.59,1l.78.53.31.21.29.21c1,.76,2.05,1.58,3,2.43s1.91,1.75,2.81,2.69c.44.45.87.92,1.29,1.39l.62.72c.13.14.25.29.37.43l.12.15a47.69,47.69,0,0,1,4.51,6.68c.36.63.69,1.26,1,1.91.16.32.32.65.47,1l.18.39c.07.14.13.27.18.4-.08-.18-.07-.16,0,.08.59,1.36,1.13,2.73,1.62,4.12a60.55,60.55,0,0,1,2.31,8.67c.07.36.14.71.2,1.07s.07.43.11.64c.07.44,0,.18,0,.08q.18,1.19.33,2.37.27,2.26.39,4.56a77.42,77.42,0,0,1,0,9.14c0,.71-.09,1.43-.15,2.14,0,.35-.06.69-.1,1,0,.14,0,.27,0,.41s0,.27,0,0a2.91,2.91,0,0,0,0,.31c-.16,1.39-.35,2.79-.58,4.18a88.44,88.44,0,0,1-4.47,16.69c-.46,1.23-.88,2.27-1.5,3.69s-1.15,2.57-1.77,3.84c-1.26,2.56-2.63,5.05-4.13,7.48-.76,1.23-1.54,2.44-2.36,3.63-.39.56-.78,1.13-1.18,1.68l-.36.5c0-.07.2-.27-.05.07l-.75,1a85.87,85.87,0,0,1-5.58,6.61c-1,1-1.95,2-3,3-.5.47-1,.92-1.53,1.36l-.4.33-.14.11-.9.68a25.88,25.88,0,0,1-3.62,2.23l-.55.26-.05,0c-.31.14-.62.26-.94.38a19.23,19.23,0,0,1-2.12.65A10.36,10.36,0,0,1,446,421a19.74,19.74,0,0,1-2.43.09c-.37,0-.73,0-1.1-.06l-.38,0-.38-.05c-.81-.11-1.61-.26-2.41-.44a38.8,38.8,0,0,1-8.54-3.23c-1.41-.69-2.79-1.43-4.16-2.18a2.09,2.09,0,1,0-2,3.66c5.81,3.26,12.09,6.3,18.87,6.53,6.58.22,12.3-2.91,17.08-7.18a77.53,77.53,0,0,0,11.74-13.63,91.24,91.24,0,0,0,16.28-51c0-12.42-2.88-25.19-9.86-35.61a48.82,48.82,0,0,0-11.41-12.06,38.55,38.55,0,0,0-15.23-7.16c-.62-.12-1.24-.22-1.86-.31-.19,0-1.16-.15-.56-.08l-.38,0c-.49-.06-1-.11-1.49-.15a2.05,2.05,0,0,0-.44,4Z" transform="translate(-76.1 -133.38)"/><path class="cls-8" d="M503.15,348.93a24.52,24.52,0,0,0,.39-4,38.14,38.14,0,0,0-.22-4,22,22,0,0,0-2.16-7.24,14.13,14.13,0,0,0-11.46-7.78,14.81,14.81,0,0,0-3.93.19,6.66,6.66,0,0,0-3.94,1.78c-1,1.11-.28,3.33,1.39,3.15a7.17,7.17,0,0,0,1.77-.38,14.09,14.09,0,0,1,1.44-.44c.21-.06.43-.1.64-.14s.45-.08.19,0,.13,0,.19,0a10.83,10.83,0,0,1,1.51-.08c.25,0,.5,0,.75,0s.67.08.31,0a14.05,14.05,0,0,1,1.57.31,10.55,10.55,0,0,1,1.35.42c-.33-.13.33.15.39.18l.67.34.65.38.31.21.07.05a13,13,0,0,1,1.2,1A11.93,11.93,0,0,1,498,335a19.76,19.76,0,0,1,2.52,5.74c.39,1.36.74,2.72,1,4.11s.64,2.71,1,4.05c.07.27.52.28.56,0Z" transform="translate(-76.1 -133.38)"/><path class="cls-8" d="M502.32,339.37c.48.31.95.67,1.46.94s1.05.49,1.56.78c1,.55,2,1.15,2.91,1.78a62,62,0,0,1,5.36,4,41.08,41.08,0,0,1,8.9,10.11,39.17,39.17,0,0,1,5.28,13.68c.06.32.12.63.17,1-.06-.33.07.45.07.51.09.64.17,1.28.23,1.92.12,1.27.18,2.56.18,3.84s-.06,2.5-.17,3.74c0,.15,0,.29,0,.43,0,.4.07-.49,0,.19,0,.28-.07.56-.11.85-.1.69-.22,1.39-.35,2.08a63.66,63.66,0,0,1-2.19,8c-.44,1.31-.9,2.6-1.38,3.89l-.72,1.93-.32.83c0,.14-.1.28-.16.41-.26.68.15-.37-.12.31a67.84,67.84,0,0,1-3.2,7.06c-.63,1.17-1.31,2.31-2,3.41-.17.24-.33.48-.51.72l-.25.36c.21-.28-.08.1-.13.16-.36.48-.74.94-1.12,1.39a33.7,33.7,0,0,1-2.34,2.44c-.42.39-.86.78-1.3,1.15l-.29.25c.06-.06.34-.27,0,0l-.76.58a35.49,35.49,0,0,1-5.78,3.51l-.79.38c-.36.16.52-.23-.06,0l-.36.15c-.53.23-1.08.45-1.62.66-1.1.41-2.21.78-3.34,1.1s-2.2.59-3.32.81L494,425a1.85,1.85,0,0,1-.39.06c.38.06.33,0,.09,0l-1,.13a48.63,48.63,0,0,1-7.53.35c-1.34,0-2.68-.14-4-.27h0l-.57-.07-.91-.12c-.72-.1-1.44-.22-2.16-.34a73.26,73.26,0,0,1-7.88-1.85c-1.33-.39-2.66-.82-4-1.27L464,421l-1-.37-.54-.21c.34.13.05,0-.13-.06-.75-.3-1.49-.59-2.25-.87l-.43-.16c.42.14,0,0,0,0-.36-.13-.72-.28-1.07-.43a2.47,2.47,0,0,0-2.39,4.32c10.3,5,22.1,8.14,33.63,7.37,9.85-.67,19.62-4.46,26.78-11.35a40.2,40.2,0,0,0,8.72-13.18c1.14-2.6,2.13-5.26,3.09-7.93s1.91-5.48,2.64-8.29a45.49,45.49,0,0,0,1.34-16.34,44.42,44.42,0,0,0-4.69-15.59,41.33,41.33,0,0,0-9.1-11.72,40,40,0,0,0-5.84-4.33,33.76,33.76,0,0,0-6.71-2.95c-.54-.18-1.09-.43-1.65-.56a16.46,16.46,0,0,0-1.72-.2c-.71-.08-.79.91-.3,1.22Z" transform="translate(-76.1 -133.38)"/><path class="cls-8" d="M531.47,373.46c1.3,1.26,2.39,2.77,3.57,4.15s2.35,2.79,3.54,4.17,2.32,2.68,3.56,4.14,2.21,2.63,3.26,4c2.26,2.84,4.48,5.7,6.58,8.66,1,1.44,2,2.89,3,4.38.43.68.84,1.38,1.22,2.08.21.38.41.77.61,1.16.09.19.19.39.28.59s.12.26,0,.05l.12.3a22.62,22.62,0,0,1,.85,2.34q.18.63.33,1.26c.05.21.08.43.13.64.11.48,0-.43,0,.1a17.42,17.42,0,0,1,.15,2.16c0,.37,0,.73,0,1.09a2,2,0,0,1,0,.36c0-.31,0-.33,0-.07s0,.24,0,.36a13.56,13.56,0,0,1-.51,2.09c0,.17-.12.34-.18.5.16-.46.07-.16,0-.05-.17.37-.34.74-.54,1.1s-.36.6-.56.9c-.32.48.32-.35-.07.08-.12.14-.22.28-.34.41s-.4.42-.61.62l-.4.35c.46-.38-.23.15-.32.21a12.47,12.47,0,0,1-1.11.66s-.68.31-.24.12l-.4.17a22.75,22.75,0,0,1-2.69.86c-1.72.46-3.47.83-5.23,1.13l-.27,0-.55.09-1.22.17c-1,.12-1.93.22-2.9.3-1.75.14-3.5.21-5.26.21-2,0-4-.08-5.92-.26l-.67-.06c-.28,0-.3,0-.05,0l-.45-.05-1.55-.2c-1-.14-1.92-.3-2.87-.48-2-.37-3.95-.84-5.88-1.4-.94-.27-1.86-.56-2.78-.87l-1.48-.52-.63-.24-.42-.16c.22.09.2.08-.06,0a2.4,2.4,0,0,0-3.17.91c-.5,1-.3,2.69.92,3.17a67.65,67.65,0,0,0,22.55,4.79,64.14,64.14,0,0,0,11.17-.55c2-.27,4-.61,5.9-1.05a29.53,29.53,0,0,0,5.24-1.56,13,13,0,0,0,4.68-3.21,13.85,13.85,0,0,0,2.61-4.49,17.19,17.19,0,0,0,.38-9.87,31.85,31.85,0,0,0-4.85-10.1c-2.1-3.11-4.4-6.1-6.75-9a117.3,117.3,0,0,0-8.62-9.75c-1.5-1.49-3.07-2.91-4.67-4.29-.81-.7-1.63-1.36-2.47-2s-1.72-1.25-2.51-2a1,1,0,0,0-1.37,1.43Z" transform="translate(-76.1 -133.38)"/><path class="cls-8" d="M253.05,414.05c.31.72.53,1.48.86,2.2a15.65,15.65,0,0,0,1.16,2A22.56,22.56,0,0,0,258.2,422a24.81,24.81,0,0,0,8,5.23,25.4,25.4,0,0,0,2.7,1,6.37,6.37,0,0,0,3.07.41,1.28,1.28,0,0,0,.24-2.33,4.44,4.44,0,0,0-1.57-.45c-.48-.11-1-.22-1.45-.35a22.34,22.34,0,0,1-2.51-.83,26.41,26.41,0,0,1-9.38-6.45c-.64-.66-1.23-1.37-1.81-2.09a19,19,0,0,1-1.82-2.38c-.2-.34-.82-.08-.65.3Z" transform="translate(-76.1 -133.38)"/><path class="cls-8" d="M259.2,412.73a17.48,17.48,0,0,0,.72,2.44,17.28,17.28,0,0,0,1.19,2.3,21.4,21.4,0,0,0,3.31,4,27.25,27.25,0,0,0,8.62,5.81,30.88,30.88,0,0,0,2.92,1.06c.89.26,2.3.8,3.19.41a1.2,1.2,0,0,0,.47-2,5.41,5.41,0,0,0-2.57-.88c-.78-.19-1.54-.42-2.3-.68a26.44,26.44,0,0,1-4.38-2.05A27.34,27.34,0,0,1,263.1,417c-.59-.72-1.16-1.43-1.73-2.15s-1.24-1.48-1.76-2.26a.23.23,0,0,0-.41.18Z" transform="translate(-76.1 -133.38)"/><path class="cls-8" d="M263.86,410.8c.32.85.53,1.73.9,2.56a17.33,17.33,0,0,0,1.35,2.51,27.19,27.19,0,0,0,3.5,4.3,26.21,26.21,0,0,0,10,6.1,24,24,0,0,0,3.12.87c1.1.24,2.6.69,3.69.3a1.28,1.28,0,0,0,.24-2.31,8.71,8.71,0,0,0-2.84-.58,25.68,25.68,0,0,1-2.63-.59,24.93,24.93,0,0,1-5.08-2.06,26.55,26.55,0,0,1-8-6.58c-.62-.75-1.21-1.54-1.78-2.34a22.69,22.69,0,0,1-1.7-2.52c-.21-.42-.92-.1-.76.34Z" transform="translate(-76.1 -133.38)"/><path class="cls-8" d="M270.41,409.24c.42.78.74,1.61,1.12,2.42a20.64,20.64,0,0,0,1.29,2.29,28.83,28.83,0,0,0,3.36,4.19,38.21,38.21,0,0,0,8.25,6.62c.84.5,1.69,1,2.57,1.41s2.24,1.34,3.31.94a1.31,1.31,0,0,0,.72-1.9c-.41-.86-1.56-1.1-2.36-1.46s-1.53-.73-2.28-1.13a38.2,38.2,0,0,1-4.3-2.69,43.69,43.69,0,0,1-7.25-6.74c-.6-.71-1.21-1.43-1.82-2.13a14.85,14.85,0,0,1-1.81-2.31c-.3-.53-1.08,0-.8.49Z" transform="translate(-76.1 -133.38)"/><path class="cls-8" d="M275.25,406.61a40.49,40.49,0,0,0,2,4.7,29,29,0,0,0,2.91,4.36,35.21,35.21,0,0,0,7.68,7,24.53,24.53,0,0,0,5.29,2.9c1.55.55,2.49-1.93,1.05-2.66-.75-.38-1.54-.65-2.3-1s-1.43-.72-2.12-1.12a32.4,32.4,0,0,1-4-2.73,39.82,39.82,0,0,1-6.82-7,30.42,30.42,0,0,1-3.16-4.7c-.14-.28-.63-.07-.51.24Z" transform="translate(-76.1 -133.38)"/><path class="cls-8" d="M273.87,403.26a21.8,21.8,0,0,1-.32-2.9c0-.46,0-.93,0-1.4,0-.23,0-.47,0-.7a4.92,4.92,0,0,0-.09-.76.31.31,0,0,0-.61-.06,3.68,3.68,0,0,0-.17.73c0,.25,0,.51,0,.76a12.72,12.72,0,0,0,.16,1.5,13.31,13.31,0,0,0,.85,2.89.11.11,0,0,0,.21-.06Z" transform="translate(-76.1 -133.38)"/><path class="cls-8" d="M263.68,408.41c-.08,0-.07,0,0-.06a.32.32,0,0,0,.05-.19,1.07,1.07,0,0,0,0-.25c0-.19,0-.39,0-.58-.06-.4-.11-.79-.14-1.19s-.05-.8-.06-1.2c0-.2,0-.4-.05-.6a2,2,0,0,0-.28-.7.55.55,0,0,0-.94,0,1.6,1.6,0,0,0-.23.76,4.76,4.76,0,0,0,.07.75c.07.39.15.78.25,1.17a10.83,10.83,0,0,0,.32,1.15,5.26,5.26,0,0,0,.26.59,2.69,2.69,0,0,0,.16.29.44.44,0,0,0,.14.13c.1,0,.12,0,.05.05.1.21.47.1.45-.14Z" transform="translate(-76.1 -133.38)"/><path class="cls-8" d="M252.48,412.27a1.38,1.38,0,0,0,.26-.79,4,4,0,0,0,0-.77l-.08-.76a3.4,3.4,0,0,0-.06-.46,1.11,1.11,0,0,0-.28-.48l.13.22a.92.92,0,0,0-.24-.43.38.38,0,0,0-.6.09.94.94,0,0,0-.12.49l.06-.25a1.19,1.19,0,0,0-.15.55,2,2,0,0,0,0,.35l.11.77a4.13,4.13,0,0,0,.17.85,1.48,1.48,0,0,0,.45.67.26.26,0,0,0,.33-.05Z" transform="translate(-76.1 -133.38)"/><path class="cls-8" d="M285.68,393.28c.55,1.53,1,3.1,1.54,4.64s1.15,3.05,1.81,4.55a61.74,61.74,0,0,0,4.55,8.58,48.55,48.55,0,0,0,12.23,13.47,39.44,39.44,0,0,0,4.08,2.58c.71.38,1.43.74,2.16,1.07a5.72,5.72,0,0,0,2.77.79,1.22,1.22,0,0,0,.8-2.07,5.71,5.71,0,0,0-1.91-1.1c-.68-.29-1.35-.61-2-.94a35.77,35.77,0,0,1-3.64-2.14,43.38,43.38,0,0,1-6.5-5.36,60.31,60.31,0,0,1-10.38-14.64c-.84-1.57-1.64-3.15-2.46-4.74s-1.68-3.23-2.37-4.9c-.17-.41-.83-.23-.68.21Z" transform="translate(-76.1 -133.38)"/><path class="cls-8" d="M290.8,391.83c.5,1.61.93,3.21,1.5,4.78s1.28,3.14,2,4.68a80.32,80.32,0,0,0,4.86,8.69,94.4,94.4,0,0,0,5.78,8.1,53.35,53.35,0,0,0,6.29,6.89,24.67,24.67,0,0,0,3.77,2.74,12.39,12.39,0,0,0,4.85,2,1.3,1.3,0,0,0,1.23-1,1.36,1.36,0,0,0-.63-1.44,11.35,11.35,0,0,0-1.95-.95c-.64-.29-1.27-.61-1.88-1a20,20,0,0,1-3-2.1,48.51,48.51,0,0,1-6.06-6.43A105.13,105.13,0,0,1,296.8,401c-.88-1.59-1.73-3.19-2.6-4.79s-1.79-3.14-2.58-4.76c-.22-.47-1-.12-.82.36Z" transform="translate(-76.1 -133.38)"/><path class="cls-8" d="M297.12,389.86a17.48,17.48,0,0,0,.77,4.53,32.07,32.07,0,0,0,1.53,4.35A52.71,52.71,0,0,0,304,407c1.73,2.63,3.61,5.14,5.52,7.64s3.8,5,5.9,7.34a34.18,34.18,0,0,0,8.1,6.78c1.51.88,2.81-1.48,1.31-2.36-5.13-3-8.94-7.74-12.57-12.34-3.78-4.78-7.54-9.58-10.41-15a44.5,44.5,0,0,1-2.11-4.54c-.62-1.57-1-3.21-1.61-4.79a.51.51,0,0,0-1,.16Z" transform="translate(-76.1 -133.38)"/><path class="cls-8" d="M303.71,388.21c.43,1.57.64,3.18,1.11,4.74s1,3.06,1.64,4.55a65,65,0,0,0,4.36,8.76,63.3,63.3,0,0,0,12.35,14.84,67.58,67.58,0,0,0,8.81,6.62,1.42,1.42,0,0,0,1.92-.55,1.44,1.44,0,0,0-.55-1.93,70,70,0,0,1-24.51-27.54q-1.17-2.31-2.15-4.71c-.35-.84-.7-1.68-1-2.52a23.82,23.82,0,0,1-1-2.54.5.5,0,0,0-1,.28Z" transform="translate(-76.1 -133.38)"/><path class="cls-8" d="M310.37,386.72a5.47,5.47,0,0,0,.31,2.18,18.68,18.68,0,0,0,.8,2.28c.59,1.54,1.3,3,2,4.52a72.62,72.62,0,0,0,4.74,8.26,85.63,85.63,0,0,0,12.52,14.81,61.6,61.6,0,0,0,8.56,7.07c1.34.88,2.91-1.24,1.66-2.26-2.46-2-5-3.92-7.34-6.07a91,91,0,0,1-6.53-6.65,99.76,99.76,0,0,1-10.87-15.19c-.9-1.51-1.72-3.06-2.55-4.6-.43-.8-.85-1.61-1.29-2.4a6.79,6.79,0,0,0-1.51-2.11.32.32,0,0,0-.52.16Z" transform="translate(-76.1 -133.38)"/><path class="cls-8" d="M317.28,386.82c.57,1.45,1,2.95,1.49,4.4s1.17,2.92,1.85,4.34a73.1,73.1,0,0,0,4.53,8.05A82.18,82.18,0,0,0,337,417.93q1.88,1.8,3.85,3.46a30,30,0,0,0,4.31,3.32,1.4,1.4,0,0,0,1.63-2.23c-1.11-1.07-2.44-1.94-3.62-2.93s-2.26-1.95-3.35-3a85.34,85.34,0,0,1-6.3-6.46,94.22,94.22,0,0,1-10.44-14.66c-.83-1.43-1.62-2.88-2.42-4.33a36.65,36.65,0,0,1-2.38-4.62c-.24-.62-1.24-.32-1,.3Z" transform="translate(-76.1 -133.38)"/><path class="cls-8" d="M283.77,381a9.26,9.26,0,0,0-.19,2.83c0,.46.05.92.08,1.38a2.42,2.42,0,0,0,.44,1.68.81.81,0,0,0,1.24-.19c.32-.46.14-1.13.09-1.64s-.09-1-.17-1.43-.14-1-.23-1.41a5.79,5.79,0,0,0-.45-1.35c-.17-.36-.72-.21-.81.13Z" transform="translate(-76.1 -133.38)"/><path class="cls-8" d="M289,369.61a12.42,12.42,0,0,0-.53,2,18.94,18.94,0,0,0-.19,2,26,26,0,0,0,.35,4,.83.83,0,0,0,.95.78.82.82,0,0,0,.66-1,12.69,12.69,0,0,1-.79-3.81,21.17,21.17,0,0,1,0-3.9c0-.25-.36-.26-.43,0Z" transform="translate(-76.1 -133.38)"/><path class="cls-8" d="M295.77,382.07c0,.76,0,1.51-.07,2.27,0,.38,0,.74,0,1.12a2.56,2.56,0,0,0,.21,1.4.84.84,0,0,0,1.53-.24,2.64,2.64,0,0,0-.15-1.38c-.09-.37-.17-.74-.29-1.1-.22-.72-.44-1.43-.6-2.17-.08-.36-.63-.25-.62.1Z" transform="translate(-76.1 -133.38)"/><path class="cls-8" d="M302.53,381.49a7.19,7.19,0,0,1-.09.91c-.05.37-.07.76-.1,1.14s-.06.67-.07,1v.5a1.57,1.57,0,0,0,.22.81.86.86,0,0,0,1.47,0,1.49,1.49,0,0,0,.16-.83l-.05-.46c0-.39-.11-.78-.18-1.17s-.11-.65-.17-1a7.48,7.48,0,0,1-.2-.94.5.5,0,0,0-1,0Z" transform="translate(-76.1 -133.38)"/><path class="cls-8" d="M326.08,364.57a88,88,0,0,0,2.65,14.85,85,85,0,0,0,5.54,14.19A93.1,93.1,0,0,0,342,406.67a85,85,0,0,0,9.84,11.75c4.07,3.95,10.13,7.37,15.84,4.81a1.21,1.21,0,0,0,.79-1.46A1.19,1.19,0,0,0,367,421c-4.7,2.08-9.52-.61-13-3.8a74.81,74.81,0,0,1-9.55-11.09A98.59,98.59,0,0,1,331,380.25a119.93,119.93,0,0,1-4.49-15.76c-.05-.25-.48-.18-.46.08Z" transform="translate(-76.1 -133.38)"/><path class="cls-8" d="M332.81,356.65a39.06,39.06,0,0,0-.42,3.9c0,1.34,0,2.7.09,4a62.38,62.38,0,0,0,1.06,8.06,78.46,78.46,0,0,0,4.91,15.16c2.11,4.9,4.52,9.67,6.92,14.43a122.6,122.6,0,0,0,7.7,13.7c2.84,4.2,6.73,9,12.3,8.85a1.27,1.27,0,0,0-.06-2.53c-4.21-.06-7.28-3.93-9.5-7.06a110.12,110.12,0,0,1-7.64-13.07c-4.67-9-9.47-18.14-12.05-28a74.42,74.42,0,0,1-1.74-8.6c-.19-1.42-.37-2.85-.5-4.27s-.39-3-.53-4.52c0-.29-.5-.39-.54-.06Z" transform="translate(-76.1 -133.38)"/><path class="cls-8" d="M339,356.84a115.54,115.54,0,0,0,5.55,30.59A140.31,140.31,0,0,0,350,402c2,4.61,4.15,9.34,7.28,13.32s8,7.92,13.51,8c1.32,0,1.59-2.12.26-2.35a16.47,16.47,0,0,1-6-2.14,20.4,20.4,0,0,1-5-4.35c-3.1-3.66-5.17-8.2-7.16-12.52a146.86,146.86,0,0,1-9.61-28.5c-1.27-5.5-2.28-11.07-3.13-16.65-.11-.71-1.18-.74-1.16,0Z" transform="translate(-76.1 -133.38)"/><path class="cls-8" d="M345.31,363.35c1,8.49,3.65,16.8,6.5,24.82a209.66,209.66,0,0,0,10.05,23.68,38.43,38.43,0,0,0,3.35,5.76c1.33,1.79,3.08,3.79,5.18,4.66a1.28,1.28,0,0,0,1.61-.36,1.25,1.25,0,0,0-.14-1.64c-.74-.63-1.55-1.16-2.28-1.81a14.93,14.93,0,0,1-1.87-2,35,35,0,0,1-3-4.93c-1.94-3.67-3.75-7.42-5.45-11.22a201,201,0,0,1-8.79-23.58c-1.36-4.51-2.65-9-4.16-13.51-.17-.52-1.05-.43-1,.15Z" transform="translate(-76.1 -133.38)"/><path class="cls-8" d="M352.71,354.69c.07,1.2,0,2.4,0,3.6s.14,2.48.21,3.71c.15,2.4.4,4.79.68,7.18A138.05,138.05,0,0,0,356,383.6a86,86,0,0,0,9.19,24.52A56.78,56.78,0,0,0,369,414a35.87,35.87,0,0,0,4.83,5.53,1.25,1.25,0,0,0,1.64.06,1.23,1.23,0,0,0,.28-1.62c-1.28-1.65-2.7-3.17-3.95-4.85s-2.42-3.41-3.51-5.19a71.34,71.34,0,0,1-5.44-11.06c-3.34-8.5-5.25-17.4-6.83-26.37-.46-2.63-.86-5.28-1.32-7.92-.24-1.33-.48-2.66-.71-4s-.66-2.61-.88-3.94c0-.24-.44-.17-.42.07Z" transform="translate(-76.1 -133.38)"/><path class="cls-8" d="M344.47,351.1a.7.7,0,0,0-.45.59,8.73,8.73,0,0,0-.14,1,19.47,19.47,0,0,0-.06,2l.05,1.94a9.11,9.11,0,0,0,.2,2.08.81.81,0,0,0,1.55,0,9.18,9.18,0,0,0,0-2.16l-.1-2a16,16,0,0,0-.24-2.07c-.08-.43-.19-1.49-.84-1.35Z" transform="translate(-76.1 -133.38)"/><path class="cls-8" d="M325.17,353.09a7.17,7.17,0,0,0-.82,3.71,7.63,7.63,0,0,0,.15,1.91,9,9,0,0,0,.64,1.76c.22.47.87.17.89-.26s0-1.12.07-1.69,0-1.18,0-1.76,0-1.14.06-1.7a10,10,0,0,0,0-1.73.53.53,0,0,0-1-.24Z" transform="translate(-76.1 -133.38)"/><path class="cls-8" d="M352.07,344.19c-.1,1.05-.24,2.1-.27,3.15,0,.52-.05,1.05-.05,1.57a5.56,5.56,0,0,0,.13,1.63.7.7,0,0,0,1.34,0,5.62,5.62,0,0,0,.07-1.64c0-.52-.06-1-.1-1.56-.07-1.05-.24-2.09-.38-3.13a.37.37,0,0,0-.74,0Z" transform="translate(-76.1 -133.38)"/><path class="cls-8" d="M369.93,348.87a22.68,22.68,0,0,0-.34,3.77c-.07,1.32-.13,2.65-.14,4,0,2.64.07,5.29.24,7.93q.51,7.92,1.68,15.78t3,15.67a128.84,128.84,0,0,0,4,14.28,42.49,42.49,0,0,0,3.15,7,28.49,28.49,0,0,0,2.07,3.15,11.58,11.58,0,0,0,2.89,2.95c1.05.66,2.27-.72,1.63-1.72s-1.4-1.72-2.09-2.61a28.93,28.93,0,0,1-1.83-2.69,39.34,39.34,0,0,1-2.87-5.87,116.17,116.17,0,0,1-4.2-13.68,204.83,204.83,0,0,1-5.43-30.61c-.29-2.87-.56-5.75-.77-8.64-.11-1.48-.25-3-.39-4.44a37.19,37.19,0,0,0-.44-4.23.1.1,0,0,0-.19,0Z" transform="translate(-76.1 -133.38)"/><path class="cls-8" d="M377.17,340c-.21,1.51-.56,3-.72,4.51s-.29,3.07-.39,4.61c-.18,3-.32,6-.34,9,0,6.1.25,12.21.83,18.28s1.52,12.19,2.7,18.2a168.74,168.74,0,0,0,4.25,17.17c1.74,5.61,4.18,11.18,8.52,15.28a1.32,1.32,0,0,0,1.82-1.91c-3.67-3.48-5.81-8.15-7.4-12.88a151.62,151.62,0,0,1-4.39-16.52,193.9,193.9,0,0,1-4.21-35.53c-.09-3.33-.14-6.65-.08-10,0-1.7.09-3.4.12-5.11s-.07-3.39,0-5.08c0-.4-.66-.49-.71-.08Z" transform="translate(-76.1 -133.38)"/><path class="cls-8" d="M384.5,339.78c-.18,1.53-.43,3-.52,4.57s-.14,3.14-.18,4.71c-.1,3.14-.1,6.28-.07,9.42,0,6.23.2,12.47.44,18.7s.59,12.45,1.12,18.67c.52,6.06,1,12.24,2.71,18.1,1.65,5.56,4.61,11,9.32,14.58a1.43,1.43,0,0,0,2,0,1.41,1.41,0,0,0,0-2c-8.87-6.92-10.09-18.85-11.1-29.25-1.18-12.17-2.06-24.37-2.36-36.6-.08-3.47-.09-6.94-.16-10.41,0-1.73,0-3.47-.08-5.2,0-.82,0-1.65-.07-2.47s-.22-1.81-.28-2.72c0-.37-.65-.49-.69-.08Z" transform="translate(-76.1 -133.38)"/><path class="cls-8" d="M393.75,338.83c-.27,1.44-.54,2.83-.68,4.29s-.25,3-.35,4.49c-.19,3-.29,6-.42,9-.25,6-.44,11.94-.66,17.92-.42,11.47-.93,23,0,34.44A98.59,98.59,0,0,0,394.9,428c.52,1.79,3.21,1,2.77-.84a115.85,115.85,0,0,1-2.94-16.53c-.57-5.66-.75-11.33-.81-17-.11-11.58.32-23.18.56-34.75.07-3.32.1-6.64.15-9.95,0-1.66,0-3.32-.06-5,0-.83,0-1.67-.1-2.49s-.25-1.73-.37-2.6c0-.18-.31-.25-.35,0Z" transform="translate(-76.1 -133.38)"/><path class="cls-8" d="M370,339.54a19,19,0,0,0-.81,5.45.73.73,0,0,0,1.42.16,19,19,0,0,0,.11-5.53.37.37,0,0,0-.72-.08Z" transform="translate(-76.1 -133.38)"/><path class="cls-8" d="M377.71,325.63c-.34,1.58-.63,3.15-.82,4.76-.09.81-.17,1.62-.22,2.44a6.88,6.88,0,0,0,.05,2.48.73.73,0,0,0,1.32.14,7,7,0,0,0,.42-2.33c.1-.84.14-1.7.17-2.54.05-1.63,0-3.23-.1-4.86a.42.42,0,0,0-.82-.09Z" transform="translate(-76.1 -133.38)"/><path class="cls-8" d="M384.18,331.57a15.82,15.82,0,0,0-.45,2.74c0,.44-.08.89-.13,1.33,0,.23,0,.46,0,.69a1.48,1.48,0,0,0,0,.3,1,1,0,0,0,.29.61.73.73,0,0,0,1,0c.38-.38.34-1.09.34-1.61s0-.88,0-1.33a14.63,14.63,0,0,0-.24-2.72c-.08-.43-.7-.34-.81,0Z" transform="translate(-76.1 -133.38)"/><path class="cls-8" d="M551.09,413.15a18.24,18.24,0,0,1-1.83,2.39c-.58.73-1.17,1.43-1.82,2.1a27.62,27.62,0,0,1-4.31,3.7,27,27,0,0,1-5,2.68,24.92,24.92,0,0,1-2.65.88c-.48.13-1,.25-1.45.35a4.62,4.62,0,0,0-1.56.46,1.29,1.29,0,0,0,.36,2.33,6,6,0,0,0,2.71-.36,22,22,0,0,0,2.22-.71,26.83,26.83,0,0,0,4.42-2.13,24,24,0,0,0,7.07-6.53,17.27,17.27,0,0,0,1.38-2.2c.42-.85.68-1.74,1.06-2.61a.37.37,0,0,0-.64-.35Z" transform="translate(-76.1 -133.38)"/><path class="cls-8" d="M545.19,411.94c-.46.69-1,1.33-1.55,2s-1,1.25-1.47,1.86a38.94,38.94,0,0,1-3.39,3.64,25.89,25.89,0,0,1-8.1,5,26.86,26.86,0,0,1-2.63.85c-.95.24-2.18.3-2.91,1a1.19,1.19,0,0,0,.29,1.85,4.46,4.46,0,0,0,2.94-.19,24.32,24.32,0,0,0,2.46-.8,27.91,27.91,0,0,0,4.83-2.41,26.68,26.68,0,0,0,7.67-7.26,14.71,14.71,0,0,0,1.39-2.48,18.83,18.83,0,0,0,.89-2.85c.07-.26-.28-.36-.42-.16Z" transform="translate(-76.1 -133.38)"/><path class="cls-8" d="M540.17,409.86a28.07,28.07,0,0,1-3,4.23,27.4,27.4,0,0,1-3.61,3.85,25.81,25.81,0,0,1-9.17,5.17,26.36,26.36,0,0,1-3,.77,10.46,10.46,0,0,0-3.26.67,1.27,1.27,0,0,0,.36,2.29,6.54,6.54,0,0,0,3.16-.22,26.73,26.73,0,0,0,2.93-.74A28.4,28.4,0,0,0,530,423.5a25.79,25.79,0,0,0,8.3-7.7,16.85,16.85,0,0,0,1.53-2.63c.46-1,.72-2,1.1-3,.16-.45-.56-.72-.78-.31Z" transform="translate(-76.1 -133.38)"/><path class="cls-8" d="M533.58,408.15a12.82,12.82,0,0,1-1.56,2c-.56.63-1.09,1.28-1.65,1.91-1.13,1.26-2.24,2.52-3.46,3.7a39,39,0,0,1-8,5.91c-.82.46-1.67.89-2.52,1.29s-2.23.68-2.69,1.65a1.3,1.3,0,0,0,.82,1.86c1,.36,2.11-.4,3-.82s1.56-.79,2.33-1.23a39,39,0,0,0,4.38-2.95,36.77,36.77,0,0,0,7.4-7.65,17.06,17.06,0,0,0,1.5-2.5c.44-.91.79-1.87,1.27-2.75a.47.47,0,0,0-.82-.46Z" transform="translate(-76.1 -133.38)"/><path class="cls-8" d="M529,405.77a30.22,30.22,0,0,1-2.7,4.1,40.29,40.29,0,0,1-3.21,3.8,34.7,34.7,0,0,1-7.48,6.13c-.79.48-1.61.93-2.44,1.34s-1.78.74-2.64,1.18c-1.46.74-.36,3.15,1.17,2.61a23.09,23.09,0,0,0,4.64-2.5,36.51,36.51,0,0,0,4.24-3.2,31,31,0,0,0,6.52-7.82,39,39,0,0,0,2.4-5.36c.13-.33-.33-.62-.5-.28Z" transform="translate(-76.1 -133.38)"/><path class="cls-8" d="M531.14,402.72a13.54,13.54,0,0,0,.85-2.87,12.72,12.72,0,0,0,.16-1.5,6.42,6.42,0,0,0,0-.76,2.94,2.94,0,0,0-.17-.78c-.08-.28-.55-.3-.59,0a6,6,0,0,0-.11.74c0,.25,0,.5,0,.75,0,.47,0,.94,0,1.4a20.64,20.64,0,0,1-.31,2.94c0,.11.15.2.2.07Z" transform="translate(-76.1 -133.38)"/><path class="cls-8" d="M541.59,407.92c-.07,0-.05,0,0-.05a.33.33,0,0,0,.13-.13,1.3,1.3,0,0,0,.14-.26,4.46,4.46,0,0,0,.28-.63c.12-.38.23-.77.33-1.16s.18-.77.25-1.17a5.67,5.67,0,0,0,.06-.71,1.92,1.92,0,0,0-.25-.79c-.17-.38-.76-.3-.94,0a1.81,1.81,0,0,0-.27.71c0,.2,0,.4,0,.6,0,.4,0,.8-.05,1.2s-.09.74-.14,1.12c0,.21,0,.43,0,.64s0,.16,0,.25a.39.39,0,0,0,.06.18c.08.1.08.1,0,0,0,.25.31.44.45.17Z" transform="translate(-76.1 -133.38)"/><path class="cls-8" d="M552.67,411.7a1.49,1.49,0,0,0,.44-.69,5,5,0,0,0,.16-.75l.1-.77a3.44,3.44,0,0,0,0-.45,1.12,1.12,0,0,0-.15-.54l.07.24a.91.91,0,0,0-.13-.48.39.39,0,0,0-.61-.06.89.89,0,0,0-.23.44l.12-.22a1,1,0,0,0-.27.48,2.42,2.42,0,0,0-.06.46l-.08.77a4.83,4.83,0,0,0,0,.76,1.52,1.52,0,0,0,.27.78.29.29,0,0,0,.34,0Z" transform="translate(-76.1 -133.38)"/><path class="cls-8" d="M518.48,392.39c-.62,1.47-1.37,2.88-2.07,4.3s-1.44,2.86-2.19,4.27A93.06,93.06,0,0,1,509.5,409a47.26,47.26,0,0,1-11.92,12.46,37.37,37.37,0,0,1-4.1,2.54c-.66.35-1.33.68-2,1a6.71,6.71,0,0,0-2.32,1.3,1.22,1.22,0,0,0,.9,2,4.72,4.72,0,0,0,2.25-.59c.72-.33,1.44-.66,2.14-1a37.31,37.31,0,0,0,3.79-2.28A41.61,41.61,0,0,0,505,418.6a58.67,58.67,0,0,0,10.39-15.75c.74-1.62,1.43-3.27,2-5s1.14-3.51,1.76-5.26c.13-.37-.5-.62-.65-.25Z" transform="translate(-76.1 -133.38)"/><path class="cls-8" d="M513.17,390.87c-.71,1.47-1.54,2.88-2.32,4.31s-1.51,2.83-2.3,4.22c-1.59,2.84-3.23,5.63-5,8.35s-3.62,5.19-5.62,7.65a60,60,0,0,1-6,6.63,20.44,20.44,0,0,1-3.37,2.5,20.87,20.87,0,0,1-1.92,1,14.2,14.2,0,0,0-2.29,1.1c-1,.69-.65,2.51.71,2.39a11.62,11.62,0,0,0,4.39-1.72,23.13,23.13,0,0,0,3.48-2.4,46.14,46.14,0,0,0,6.18-6.47A90.38,90.38,0,0,0,510,401.7a51.32,51.32,0,0,0,2.3-5.14c.66-1.77,1.16-3.56,1.72-5.36a.46.46,0,0,0-.84-.33Z" transform="translate(-76.1 -133.38)"/><path class="cls-8" d="M506.68,389.11c-.54,1.45-.91,3-1.46,4.42a42.06,42.06,0,0,1-1.79,4,66.69,66.69,0,0,1-4.67,7.73c-1.73,2.46-3.59,4.82-5.45,7.18s-3.75,4.76-5.81,7a33.58,33.58,0,0,1-7.57,6.34c-1.5.88-.09,3.17,1.42,2.3,5.43-3.18,9.38-8.12,13.15-13s7.74-10,10.37-15.74a35.7,35.7,0,0,0,1.88-5,18.28,18.28,0,0,0,.93-5.12c0-.61-.82-.62-1-.11Z" transform="translate(-76.1 -133.38)"/><path class="cls-8" d="M500.14,387.34a42,42,0,0,1-1.82,4.53c-.58,1.43-1.19,2.83-1.86,4.22a73.19,73.19,0,0,1-4.59,8.09,72.14,72.14,0,0,1-12.1,14.16,63.33,63.33,0,0,1-8.37,6.32,1.42,1.42,0,0,0,1.49,2.41,64.49,64.49,0,0,0,25-29.09c.71-1.69,1.36-3.4,1.93-5.14.28-.85.52-1.73.73-2.6s.31-1.79.55-2.66a.49.49,0,0,0-1-.24Z" transform="translate(-76.1 -133.38)"/><path class="cls-8" d="M494,385.91a6.13,6.13,0,0,0-1.31,1.75c-.44.68-.78,1.42-1.17,2.13-.74,1.36-1.46,2.74-2.23,4.09-1.58,2.76-3.27,5.46-5.09,8.07A89.68,89.68,0,0,1,472,416.11q-1.92,1.81-3.94,3.51c-1.4,1.17-2.87,2.24-4.29,3.39a1.42,1.42,0,0,0,1.77,2.18,60.49,60.49,0,0,0,7.67-6.25,85.75,85.75,0,0,0,6.64-6.84,79,79,0,0,0,10.95-16c.83-1.65,1.65-3.32,2.32-5,.32-.8.67-1.62.92-2.44a5.93,5.93,0,0,0,.39-2.55.31.31,0,0,0-.47-.18Z" transform="translate(-76.1 -133.38)"/><path class="cls-8" d="M486.52,385.93a36,36,0,0,1-2.15,4.19q-1.08,2-2.17,3.9c-1.48,2.62-3.09,5.18-4.8,7.66a88.26,88.26,0,0,1-11.72,13.66c-1.21,1.13-2.44,2.24-3.71,3.32s-2.77,2.07-4,3.26.4,2.9,1.74,2.14a27.91,27.91,0,0,0,3.84-2.94c1.19-1,2.37-2,3.5-3.08a83.81,83.81,0,0,0,6.37-6.69,76.92,76.92,0,0,0,10.31-15.45,52,52,0,0,0,2.11-4.77c.62-1.63,1.07-3.32,1.7-4.95.24-.62-.77-.87-1-.25Z" transform="translate(-76.1 -133.38)"/><path class="cls-8" d="M520.22,380.31a9.3,9.3,0,0,0-.68,2.71c-.07.5-.11,1-.16,1.5s-.23,1.16.1,1.62a.8.8,0,0,0,1.25.13c.44-.43.38-1.12.41-1.69s.07-.92.09-1.38a9.82,9.82,0,0,0-.2-2.81.45.45,0,0,0-.81-.08Z" transform="translate(-76.1 -133.38)"/><path class="cls-8" d="M515.35,369.05a20.52,20.52,0,0,1,0,3.84,12.1,12.1,0,0,1-.73,3.69.83.83,0,0,0,.42,1.16.82.82,0,0,0,1.1-.56,27.75,27.75,0,0,0,.38-4.17,14.92,14.92,0,0,0-.73-4c-.07-.23-.45-.18-.42.07Z" transform="translate(-76.1 -133.38)"/><path class="cls-8" d="M508.41,381.37c-.16.74-.38,1.46-.61,2.18-.11.36-.19.71-.28,1.08a2.56,2.56,0,0,0-.13,1.42.84.84,0,0,0,1.53.16,2.52,2.52,0,0,0,.2-1.36c0-.39,0-.77,0-1.15,0-.76-.08-1.5-.06-2.26a.32.32,0,0,0-.63-.07Z" transform="translate(-76.1 -133.38)"/><path class="cls-8" d="M501.28,380.87a7,7,0,0,1-.19.91c-.07.32-.12.65-.18,1s-.13.76-.17,1.14a2.28,2.28,0,0,0,0,1.16.87.87,0,0,0,.73.59.84.84,0,0,0,.84-.43,1.66,1.66,0,0,0,.2-.82v-.46c0-.35,0-.7-.06-1s-.05-.67-.09-1a8.77,8.77,0,0,1-.11-1,.5.5,0,0,0-.5-.49.52.52,0,0,0-.49.51Z" transform="translate(-76.1 -133.38)"/><path class="cls-8" d="M478.26,363.89A103.18,103.18,0,0,1,474.34,378a115.72,115.72,0,0,1-5.49,13.41,94.26,94.26,0,0,1-16.66,23.78c-3.51,3.6-8.86,7.61-14.14,5.27a1.22,1.22,0,0,0-1.6.46,1.2,1.2,0,0,0,.46,1.6c5.1,2.28,10.54.06,14.54-3.33a52.33,52.33,0,0,0,5.45-5.59q2.49-2.87,4.74-5.92a94.62,94.62,0,0,0,13.86-27,79,79,0,0,0,3.22-16.7c0-.26-.41-.31-.46-.05Z" transform="translate(-76.1 -133.38)"/><path class="cls-8" d="M471.45,356.11c-.11,1.32-.35,2.62-.47,3.94s-.27,2.62-.44,3.93c-.32,2.55-.82,5.08-1.39,7.59A82,82,0,0,1,464.23,386c-2.05,4.69-4.39,9.24-6.73,13.78a135.63,135.63,0,0,1-7.43,13.2c-2.41,3.64-5.76,8.55-10.64,8.62a1.27,1.27,0,0,0,.06,2.54c4.8.09,8.46-3.6,11.08-7.21a99.84,99.84,0,0,0,8-13.54c4.78-9.4,9.79-18.92,12.26-29.24a61.76,61.76,0,0,0,1.43-8.95c.13-1.51.2-3,.2-4.51a37.74,37.74,0,0,0-.41-4.63.28.28,0,0,0-.56,0Z" transform="translate(-76.1 -133.38)"/><path class="cls-8" d="M464.71,356.07a191,191,0,0,1-6.61,29.42,141.73,141.73,0,0,1-5.37,14.14,69.19,69.19,0,0,1-6.87,12.88,22.1,22.1,0,0,1-5.32,5.25,16.72,16.72,0,0,1-6.81,2.61c-1.35.23-.93,2.35.38,2.33,4.68-.07,9.14-3.05,12.16-6.43,3.37-3.77,5.63-8.39,7.71-12.95a139.47,139.47,0,0,0,9.74-29.64,105,105,0,0,0,2.13-17.48c0-.65-1-.78-1.14-.13Z" transform="translate(-76.1 -133.38)"/><path class="cls-8" d="M458.5,362.6c-2.68,8-4.77,16.11-7.64,24a198.5,198.5,0,0,1-10.06,23,48.81,48.81,0,0,1-3.23,5.61,15.93,15.93,0,0,1-2.08,2.41c-.81.77-1.74,1.38-2.59,2.1a1.26,1.26,0,0,0,1.27,2.06,12.84,12.84,0,0,0,4.8-3.95,30.9,30.9,0,0,0,3.22-5.08c2-3.78,3.75-7.65,5.44-11.55A211.07,211.07,0,0,0,456.42,377a85.92,85.92,0,0,0,3.06-14.18.51.51,0,0,0-1-.25Z" transform="translate(-76.1 -133.38)"/><path class="cls-8" d="M451.67,354c-.19,1.18-.57,2.32-.8,3.49s-.42,2.36-.63,3.54c-.42,2.32-.77,4.65-1.17,7-.79,4.7-1.64,9.39-2.74,14a89.21,89.21,0,0,1-9,23.86,69,69,0,0,1-3.75,5.79c-1.36,1.9-2.94,3.6-4.37,5.43a1.25,1.25,0,0,0,1.81,1.72,33,33,0,0,0,4.23-4.76,59.79,59.79,0,0,0,3.63-5.3,74.67,74.67,0,0,0,5.61-11.38A109.8,109.8,0,0,0,451,370.36c.33-2.68.64-5.36.83-8.06.09-1.35.17-2.7.24-4.06s-.05-2.78,0-4.17a.22.22,0,0,0-.43-.05Z" transform="translate(-76.1 -133.38)"/><path class="cls-8" d="M460.15,350.49c-.55.09-.63,1.1-.69,1.52q-.15,1-.21,2.07a17.53,17.53,0,0,0-.05,4,.8.8,0,0,0,.79.57.83.83,0,0,0,.76-.61,9.81,9.81,0,0,0,.19-2.16l0-2a13.51,13.51,0,0,0-.07-2c-.06-.45-.08-1.51-.76-1.4Z" transform="translate(-76.1 -133.38)"/><path class="cls-8" d="M478.66,352.6a10.06,10.06,0,0,0,0,1.82c0,.56.05,1.13.06,1.7s-.05,1.13,0,1.7.05,1.2.08,1.8a.48.48,0,0,0,.89.22,8.87,8.87,0,0,0,.63-1.72,7.3,7.3,0,0,0,.15-2,11.26,11.26,0,0,0-.2-1.91,4.75,4.75,0,0,0-.63-1.78c-.22-.34-.91-.33-1,.15Z" transform="translate(-76.1 -133.38)"/><path class="cls-8" d="M452,343.48c-.13,1.06-.31,2.12-.38,3.18,0,.53-.08,1-.1,1.57a5.7,5.7,0,0,0,.07,1.7.7.7,0,0,0,1.34,0,5.24,5.24,0,0,0,.12-1.63c0-.52,0-1.05,0-1.57,0-1-.18-2.09-.28-3.13,0-.38-.67-.52-.73-.08Z" transform="translate(-76.1 -133.38)"/><path class="cls-8" d="M434.68,348.26a31.48,31.48,0,0,0-.4,3.77c-.11,1.28-.23,2.57-.34,3.85-.23,2.61-.43,5.21-.67,7.82-.46,5.14-1.14,10.27-2,15.36s-1.91,10.17-3.14,15.19A135.76,135.76,0,0,1,424,408.37a45.24,45.24,0,0,1-3,6.62,28.56,28.56,0,0,1-2,3c-.79,1-1.71,2-2.42,3.06s.72,2.26,1.72,1.63a9.91,9.91,0,0,0,2.47-2.45,30.16,30.16,0,0,0,2-2.88,38.5,38.5,0,0,0,3-6.23A109.05,109.05,0,0,0,430,397.2a190.49,190.49,0,0,0,5-31.39c.22-2.92.33-5.84.37-8.76,0-1.48,0-3-.1-4.45a27.56,27.56,0,0,0-.37-4.35c0-.09-.18-.08-.2,0Z" transform="translate(-76.1 -133.38)"/><path class="cls-8" d="M426.93,339.48c.06,1.5-.05,3,0,4.51s.08,3,.11,4.52c.07,3,.05,6,0,9-.1,5.92-.45,11.83-1.09,17.72a184.46,184.46,0,0,1-7,34.74c-1.66,5.33-3.86,10.69-8,14.6-1.23,1.17.68,3,1.91,1.82,3.86-3.64,6.21-8.5,7.89-13.46a144.88,144.88,0,0,0,4.4-16.79,185.33,185.33,0,0,0,3.95-36.31c0-3.37-.07-6.73-.25-10.1-.09-1.7-.19-3.41-.37-5.1s-.56-3.47-.8-5.21c-.06-.45-.74-.46-.72,0Z" transform="translate(-76.1 -133.38)"/><path class="cls-8" d="M419.62,339.26c-.06.78-.15,1.54-.24,2.31s-.08,1.61-.1,2.41c0,1.49,0,3-.07,4.46-.06,3.06-.08,6.12-.14,9.17q-.17,9.24-.74,18.46c-.39,6.11-.89,12.21-1.45,18.3-.54,5.83-1,11.75-2.57,17.42-1.46,5.29-4.11,10.49-8.51,13.93a1.43,1.43,0,0,0-.46,1.91,1.41,1.41,0,0,0,1.92.46,27.19,27.19,0,0,0,8.88-12.74c2.05-5.64,2.61-11.66,3.14-17.59,1.13-12.46,1.62-25,1.77-37.47.05-3.47.09-6.94,0-10.41-.05-1.73-.08-3.46-.17-5.2,0-.9-.05-1.82-.16-2.72s-.29-1.81-.4-2.72a.35.35,0,0,0-.7,0Z" transform="translate(-76.1 -133.38)"/><path class="cls-8" d="M410.71,338.22c-.19,1.44-.39,2.84-.44,4.29s-.08,3-.09,4.48c0,3,.05,6,.1,9,.09,5.89.24,11.78.37,17.67.24,11.44.59,22.93-.38,34.34a118,118,0,0,1-3.15,18.67,1.44,1.44,0,0,0,2.8.69,95.32,95.32,0,0,0,3-16.94,166.13,166.13,0,0,0,.76-17.13c-.06-11.7-.68-23.42-1.11-35.11-.13-3.32-.26-6.64-.43-9.95-.09-1.7-.19-3.4-.36-5.1-.08-.79-.12-1.61-.25-2.4s-.34-1.65-.5-2.48a.18.18,0,0,0-.34,0Z" transform="translate(-76.1 -133.38)"/><path class="cls-8" d="M434,339a19.46,19.46,0,0,0,.12,5.55.72.72,0,0,0,1.41-.23,18.9,18.9,0,0,0-.81-5.43c-.11-.43-.69-.27-.72.11Z" transform="translate(-76.1 -133.38)"/><path class="cls-8" d="M426.27,325.12c-.1,1.64-.15,3.25-.09,4.89,0,.79.07,1.59.15,2.39a7.11,7.11,0,0,0,.45,2.47c.31.6,1.14.33,1.32-.21a7.15,7.15,0,0,0,0-2.4c0-.83-.13-1.66-.22-2.48-.2-1.62-.49-3.2-.83-4.79-.1-.49-.79-.31-.82.13Z" transform="translate(-76.1 -133.38)"/><path class="cls-8" d="M419.81,331a14.74,14.74,0,0,0-.24,2.73c0,.45,0,.89,0,1.34a2.24,2.24,0,0,0,.36,1.59.74.74,0,0,0,1,0,1.28,1.28,0,0,0,.28-.92c0-.23,0-.46,0-.69,0-.45-.08-.89-.13-1.33a13.81,13.81,0,0,0-.46-2.72.42.42,0,0,0-.8,0Z" transform="translate(-76.1 -133.38)"/><path class="cls-8" d="M399.41,328.42c-.1,1.66-.37,3.32-.54,5s-.32,3.16-.45,4.74c-.28,3.22-.37,6.48-.52,9.71-.32,6.43-.56,12.88-.7,19.31-.28,12.87-.22,25.73.09,38.59.09,3.5.21,7,.5,10.47a61.46,61.46,0,0,0,1.56,10.55,1.26,1.26,0,1,0,2.41-.73c-.53-3.05-1-6.08-1.3-9.17s-.41-6.16-.51-9.25c-.2-6.4-.3-12.81-.36-19.21-.12-12.79-.14-25.58.1-38.36.06-3.57.11-7.14.2-10.7.05-1.83,0-3.65,0-5.47s-.14-3.65-.06-5.47c0-.28-.42-.27-.44,0Z" transform="translate(-76.1 -133.38)"/><path class="cls-8" d="M404.22,336.62c-.43,6-.48,12-.48,18s0,12.05,0,18.08c.07,11.95.29,23.91.21,35.86,0,3.25-.11,6.5-.31,9.74s-.62,6.53-1.06,9.79a1.4,1.4,0,0,0,1,1.65,1.37,1.37,0,0,0,1.65-1,68.91,68.91,0,0,0,1.13-8.94c.23-3,.33-5.92.37-8.88.08-5.91,0-11.82-.12-17.72-.15-12.05-.3-24.11-.55-36.16-.14-6.82-.26-13.63-.89-20.43a.5.5,0,0,0-1,0Z" transform="translate(-76.1 -133.38)"/><path class="cls-8" d="M283.2,366.53a42.27,42.27,0,0,1,2.42-4.43c.86-1.44,1.77-2.87,2.77-4.22a37.6,37.6,0,0,1,11.88-10.48c1-.55.06-2-.91-1.47a38.68,38.68,0,0,0-8.35,6.38,30.57,30.57,0,0,0-8.52,13.94.39.39,0,0,0,.71.28Z" transform="translate(-76.1 -133.38)"/><path class="cls-8" d="M373,306.66c1-3.82,3.52-7.32,6.2-10.17a28.84,28.84,0,0,1,9.66-6.77c8.7-3.68,19-3.22,27.73.26,4.57,1.83,8.94,5,10.46,9.91a1,1,0,0,0,1.86-.56c-1.36-4.68-5.08-8.13-9.34-10.25a40.21,40.21,0,0,0-14.64-3.8c-9.41-.73-19.23,2-26,8.73a25,25,0,0,0-4.33,5.7,28.72,28.72,0,0,0-2.43,6.74.44.44,0,0,0,.86.21Z" transform="translate(-76.1 -133.38)"/><path class="cls-8" d="M429.17,303.65a.07.07,0,0,0,0-.15.07.07,0,0,0,0,.15Z" transform="translate(-76.1 -133.38)"/><path class="cls-8" d="M428.58,303.68c.08,1.18.14,2.35.3,3.52s.33,2.44.54,3.66a1.08,1.08,0,0,0,1.34.72,1.12,1.12,0,0,0,.72-1.34c-.2-1.15-.46-2.28-.71-3.41s-.59-2.24-.91-3.35a.66.66,0,0,0-1.28.2Z" transform="translate(-76.1 -133.38)"/><path class="cls-8" d="M376.16,307c3.52-6.48,9.26-11.91,16.36-14.18a25.52,25.52,0,0,1,3.1-.77c.48-.09,1-.16,1.46-.21a3.35,3.35,0,0,0,1.68-.38.81.81,0,0,0,0-1.39c-.87-.46-2.1-.11-3,0a26.06,26.06,0,0,0-2.94.65,27.61,27.61,0,0,0-5.54,2.28,25.33,25.33,0,0,0-8.79,7.83,19.71,19.71,0,0,0-2.7,6,.23.23,0,0,0,.43.17Z" transform="translate(-76.1 -133.38)"/><path class="cls-8" d="M401.72,290.91a1.89,1.89,0,0,0,.88.27l1.14.16c.77.1,1.55.13,2.33.22s1.56.18,2.34.31a12.76,12.76,0,0,0,2.36.45.79.79,0,0,0,.36-1.47,7.81,7.81,0,0,0-2.5-.59,24,24,0,0,0-2.39-.29,13.18,13.18,0,0,0-2.35,0,8.9,8.9,0,0,0-1.15.19,2,2,0,0,0-1,.4.23.23,0,0,0,0,.34Z" transform="translate(-76.1 -133.38)"/><path class="cls-8" d="M456,311.22a72.26,72.26,0,0,1,6,4.95,48.18,48.18,0,0,1,5.32,5.56,45.56,45.56,0,0,1,7.33,13.06c.5,1.36.94,2.76,1.31,4.16a35.79,35.79,0,0,0,1.13,4.21,1,1,0,0,0,1.94-.31,14.35,14.35,0,0,0-.61-4.05c-.33-1.28-.73-2.56-1.18-3.81a44.19,44.19,0,0,0-3.42-7.31,48.47,48.47,0,0,0-10-12.19,33.79,33.79,0,0,0-7.49-4.78.29.29,0,0,0-.29.51Z" transform="translate(-76.1 -133.38)"/><path class="cls-8" d="M505.9,347.79c1.1,1.89,3.08,3.17,4.69,4.61a57,57,0,0,1,4.65,4.68,30.88,30.88,0,0,1,6.52,11.25,21.3,21.3,0,0,1,.79,3.45c.09.63.15,1.27.18,1.9a9.11,9.11,0,0,0,.19,2,1,1,0,0,0,1.88,0,8.36,8.36,0,0,0,0-3.45,26.62,26.62,0,0,0-.66-3.43,28.86,28.86,0,0,0-2.63-6.5,39.69,39.69,0,0,0-8.8-10.64c-1-.86-2-1.73-3-2.5a9.74,9.74,0,0,0-3.4-1.82.36.36,0,0,0-.39.53Z" transform="translate(-76.1 -133.38)"/><rect class="cls-7" x="9.62" y="333.17" width="636.45" height="5.88" rx="2.94"/><path class="cls-8" d="M531.31,597.3l4.7.11c4.22.1,8.44.13,12.66.17l18.78.21c7.63.1,15.27.09,22.9.13,8.33,0,16.66,0,25,.06l25.41,0,23.52,0,20,0h14.34c2.26,0,4.52.06,6.78,0h.3c1.72,0,1.66-2.68-.07-2.68H688.22l-18.77,0-22.9,0-25,0-25.4,0c-7.84,0-15.68.08-23.52.13-6.65,0-13.3.12-19.95.19-4.77,0-9.55.08-14.33.16-2.26,0-4.52.06-6.78.16h-.3a.56.56,0,0,0,0,1.11Z" transform="translate(-76.1 -133.38)"/></g></g><path class="cls-8" d="M271.34,597.12l-5.21-.11c-4.69-.1-9.38-.12-14.07-.17l-20.95-.21c-8.45-.09-16.91-.08-25.37-.13-9.32,0-18.65,0-28-.06l-28,0-26.34,0-22.1,0h-16c-2.51,0-5-.06-7.53,0h-.33a1.34,1.34,0,0,0,.06,2.68H96.76l20.94,0,25.37,0,28,0,28.05,0c8.78,0,17.55-.08,26.33-.13,7.36,0,14.73-.12,22.1-.19,5.33,0,10.66-.08,16-.16,2.51,0,5-.06,7.53-.16h.33a.56.56,0,0,0,0-1.11Z" transform="translate(-76.1 -133.38)"/></svg>